<svg xmlns="http://www.w3.org/2000/svg" width="640" height="400" viewBox="0 0 640 400">
  <rect width="640" height="400" fill="#1c1712"/>
  <path d="M0 90 Q160 60 320 95 T640 80 L640 0 L0 0 Z" fill="#241a12" opacity="0.7"/>
  <path d="M0 96 Q160 66 320 101 T640 86" fill="none" stroke="#b23b32" stroke-width="3" stroke-dasharray="2 8"/>
  <text x="20" y="58" fill="#b23b32" font-family="Georgia, serif" font-size="16" font-style="italic">A Grande Fenda</text>
  <path d="M120 360 Q180 300 150 250 Q260 240 300 300 Q420 250 520 300 L560 360 Z" fill="#2a2018" stroke="#6fae6a" stroke-width="1.2" opacity="0.8"/>
  <g>
    <path d="M300 150 l12 22 h-24 z" fill="#c8a13a"/>
    <text x="318" y="172" fill="#f1e7d6" font-family="Georgia, serif" font-size="14">Muralha de Pedravale</text>
  </g>
  <g>
    <circle cx="250" cy="300" r="7" fill="#e3b341"/>
    <text x="264" y="305" fill="#f1e7d6" font-family="Georgia, serif" font-size="14">Pedravale (corte)</text>
  </g>
  <g>
    <circle cx="470" cy="280" r="6" fill="#6fae6a"/>
    <text x="484" y="285" fill="#f1e7d6" font-family="Georgia, serif" font-size="14">Bosque de Vael</text>
  </g>
  <text x="20" y="36" fill="#e3b341" font-family="Georgia, serif" font-size="20">Reino de Valdoran</text>
</svg>
